<svg xmlns="http://www.w3.org/2000/svg" version="1.1" xmlns:xlink="http://www.w3.org/1999/xlink" width="1000" height="1000"><style>
    #light-icon {
      display: inline;
    }
    #dark-icon {
      display: none;
    }

    @media (prefers-color-scheme: dark) {
      #light-icon {
        display: none;
      }
      #dark-icon {
        display: inline;
      }
    }
  </style><g id="light-icon"><svg xmlns="http://www.w3.org/2000/svg" version="1.1" xmlns:xlink="http://www.w3.org/1999/xlink" width="1000" height="1000"><g><g transform="matrix(3.1746031746031744,0,0,3.1746031746031744,39.6825396825397,0)"><svg xmlns="http://www.w3.org/2000/svg" version="1.1" xmlns:xlink="http://www.w3.org/1999/xlink" width="290" height="315"><svg width="290" height="315" viewBox="0 0 290 315" fill="none" xmlns="http://www.w3.org/2000/svg">
<path d="M71.7806 35.5803C71.7806 31.8904 74.7914 28.8991 78.5053 28.8991H105.972C109.685 28.8991 112.696 31.8904 112.696 35.5803V64.717C112.696 68.407 109.685 71.3982 105.972 71.3982H78.5053C74.7914 71.3982 71.7806 68.4069 71.7806 64.717V35.5803Z" fill="#181818"></path>
<path d="M71.4139 197.787C71.4139 194.097 74.4247 191.106 78.1386 191.106H106.871C110.585 191.106 113.596 194.097 113.596 197.787V279.42C113.596 283.11 110.585 286.101 106.871 286.101H78.1386C74.4247 286.101 71.4139 283.11 71.4139 279.42V197.787Z" fill="#181818"></path>
<path d="M170.352 249.924C170.352 246.234 173.363 243.243 177.077 243.243H204.543C208.257 243.243 211.268 246.234 211.268 249.924V279.061C211.268 282.751 208.257 285.742 204.543 285.742H177.077C173.363 285.742 170.352 282.751 170.352 279.061V249.924Z" fill="#AB60F6"></path>
<path d="M204.542 28.8991H177.076C173.362 28.8991 170.351 31.8904 170.351 35.5803V89.3444C161.498 90.1992 152.435 91.5013 143.384 93.3858C98.2649 102.779 54.7968 97.7038 37.1992 94.8745C32.9581 94.1926 29 97.4282 29 101.697V130.124C29 133.169 31.04 135.809 34.0379 136.44C49.6611 139.729 99.0097 148.176 145 135.295C188.029 123.244 233.997 129.862 252.534 133.458C256.851 134.296 261 131.033 261 126.663V98.8206C261 95.655 258.788 92.9415 255.645 92.4197C247.696 91.0999 231.509 88.8206 211.267 88.1535V35.5803C211.267 31.8904 208.256 28.8991 204.542 28.8991Z" fill="#AB60F6"></path>
<path d="M34.0379 227.045C31.04 226.414 29 223.774 29 220.729L29 192.302C29 188.033 32.9581 184.798 37.1992 185.479C54.7968 188.309 98.2649 193.384 143.384 183.991C191.459 173.982 239.837 180.4 255.645 183.025C258.788 183.546 261 186.26 261 189.426V217.268C261 221.638 256.851 224.901 252.534 224.063C233.997 220.467 188.029 213.849 145 225.9C99.0097 238.781 49.6611 230.334 34.0379 227.045Z" fill="#181818"></path>
</svg></svg></g></g></svg></g><g id="dark-icon"><svg xmlns="http://www.w3.org/2000/svg" version="1.1" xmlns:xlink="http://www.w3.org/1999/xlink" width="1000" height="1000"><g><g transform="matrix(4.587155963302752,0,0,4.587155963302752,41.28440366972478,0)"><svg xmlns="http://www.w3.org/2000/svg" version="1.1" xmlns:xlink="http://www.w3.org/1999/xlink" width="200" height="218"><svg width="200" height="218" viewBox="0 0 200 218" fill="none" xmlns="http://www.w3.org/2000/svg">
<path d="M49.5039 24.6238C49.5039 22.0702 51.5803 20 54.1416 20H73.0838C75.6452 20 77.7215 22.0702 77.7215 24.6238V44.7883C77.7215 47.3419 75.6452 49.4121 73.0838 49.4121H54.1416C51.5803 49.4121 49.5039 47.3419 49.5039 44.7883V24.6238Z" fill="white"></path>
<path d="M49.251 136.881C49.251 134.328 51.3273 132.258 53.8887 132.258H73.7042C76.2655 132.258 78.3419 134.328 78.3419 136.881V193.376C78.3419 195.93 76.2655 198 73.7042 198H53.8887C51.3273 198 49.251 195.93 49.251 193.376V136.881Z" fill="white"></path>
<path d="M117.484 172.963C117.484 170.41 119.561 168.34 122.122 168.34H141.064C143.626 168.34 145.702 170.41 145.702 172.963V193.128C145.702 195.682 143.626 197.752 141.064 197.752H122.122C119.561 197.752 117.484 195.682 117.484 193.128V172.963Z" fill="#AB60F6"></path>
<path d="M141.064 20H122.121C119.56 20 117.484 22.0702 117.484 24.6238V61.832C111.378 62.4235 105.128 63.3247 98.8854 64.6289C67.7689 71.1299 37.7909 67.6172 25.6546 65.6591C22.7297 65.1872 20 67.4265 20 70.3806V90.0542C20 92.1613 21.4069 93.9882 23.4744 94.4249C34.2491 96.7011 68.2825 102.547 100 93.6329C129.675 85.2927 161.377 89.873 174.161 92.3616C177.139 92.9412 180 90.683 180 87.6586V68.3901C180 66.1993 178.474 64.3214 176.307 63.9603C170.825 63.0469 159.662 61.4695 145.701 61.0078V24.6238C145.701 22.0702 143.625 20 141.064 20Z" fill="#AB60F6"></path>
<path d="M23.4744 157.129C21.4069 156.693 20 154.866 20 152.759L20 133.085C20 130.131 22.7297 127.892 25.6546 128.364C37.7909 130.322 67.7689 133.834 98.8854 127.333C132.041 120.406 165.405 124.848 176.307 126.665C178.474 127.026 180 128.904 180 131.095V150.363C180 153.387 177.139 155.646 174.161 155.066C161.377 152.577 129.675 147.997 100 156.337C68.2825 165.252 34.2491 159.406 23.4744 157.129Z" fill="white"></path>
</svg></svg></g></g></svg></g></svg>